# xmcd
# 
# Track frame offsets:
#     150
#     17303
#     31866
#     58970
#     77598
#     91661
#     113552
# 
# Disc length: 1759
# 
# Revision: 0
# Processed by: cddbd v1.5.2PL0 Copyright (c) Steve Scherf et al.
# Submitted via: fre:ac v1.0.17
# 
DISCID=4006dd07
DTITLE=Selene - Un fiore  nel deserto
DYEAR=0
DGENRE=
TTITLE0=AspettoTeMastering
TTITLE1=HoFattoGrazieMastering
TTITLE2=IoNonTiMastering
TTITLE3=TuttoIntornoMastering
TTITLE4=IlFioreMastering
TTITLE5=L'AngeloMastering
TTITLE6=IoConfidoMastering
EXTD=
EXTT0=
EXTT1=
EXTT2=
EXTT3=
EXTT4=
EXTT5=
EXTT6=
PLAYORDER=
